<?xml version="1.0" standalone="no"?><!DOCTYPE svg PUBLIC "-//W3C//DTD SVG 1.1//EN" "http://www.w3.org/Graphics/SVG/1.1/DTD/svg11.dtd"><svg t="1589619354676" class="icon" viewBox="0 0 1024 1024" version="1.1" xmlns="http://www.w3.org/2000/svg" p-id="2233" xmlns:xlink="http://www.w3.org/1999/xlink" width="200" height="200"><defs><style type="text/css"></style></defs><path d="M987.386104 549.682227H37.139875c-20.178575 0-36.557614-16.363689-36.557614-36.540217 0-20.159132 16.379039-36.558637 36.557614-36.558638h950.246229c20.215414 0 36.540218 16.399505 36.540218 36.558638 0.001023 20.176528-16.32378 36.540218-36.540218 36.540217zM877.768521 988.265124H676.274414c-20.215414 0-36.577057-16.32685-36.577057-36.539194 0-20.215414 16.360619-36.577057 36.577057-36.577057h201.49513c20.179598 0 36.502355-16.361643 36.502356-36.539194V695.876867c0-20.215414 16.361643-36.539194 36.577056-36.539194 20.217461 0 36.539194 16.322757 36.539195 36.539194v182.733835c-0.002047 60.462047-49.192376 109.654422-109.61963 109.654422z m-522.788717 0h-208.201879c-60.464093 0-109.636003-49.192376-109.636003-109.654422V695.876867c0-20.215414 16.379039-36.539194 36.55659-36.539194 20.179598 0 36.522822 16.322757 36.522822 36.539194v182.733835c0 20.179598 16.413831 36.539194 36.557614 36.539194h208.201879c20.215414 0 36.57808 16.361643 36.57808 36.577057-0.002047 20.212344-16.364713 36.538171-36.579103 36.538171zM73.698512 366.946346c-20.177552 0-36.556591-16.379039-36.55659-36.558637V147.654898c0-60.462047 49.173956-109.637026 109.636003-109.637026h208.201879c20.215414 0 36.57808 16.379039 36.57808 36.557614 0 20.142759-16.362666 36.521798-36.57808 36.521798h-208.201879c-20.142759 0-36.557614 16.415878-36.557614 36.557614V330.387709c0 20.179598-16.344247 36.558637-36.521799 36.558637z m877.149421 0c-20.215414 0-36.577057-16.379039-36.577057-36.558637V147.654898c0-20.141736-16.322757-36.557614-36.502355-36.557614H676.274414c-20.215414 0-36.577057-16.379039-36.577057-36.521798 0-20.177552 16.360619-36.557614 36.577057-36.557614h201.49513c60.426231 0 109.618607 49.173956 109.618607 109.637026V330.387709c-0.002047 20.179598-16.322757 36.558637-36.540218 36.558637z" fill="#ffffff" p-id="2234"></path></svg>